<svg id="Layer_1" data-name="Layer 1" xmlns="http://www.w3.org/2000/svg" viewBox="0 0 2000 2000"><defs><style>.cls-1{fill:#82ccb0;}</style></defs><title>abcode ...</title><path class="cls-1" d="M727.45,1492.5H605.31a5.19,5.19,0,0,0-5,5v41.08a5.19,5.19,0,0,0,5,5H727.45a5.19,5.19,0,0,0,5-5v-41.08a5.19,5.19,0,0,0-5-5Z"/><path class="cls-1" d="M1182.11,1411.71H1060a5.17,5.17,0,0,0-5,5v121.87a5.17,5.17,0,0,0,5,5h122.14a5.19,5.19,0,0,0,5-5V1416.67a5.19,5.19,0,0,0-5-5Z"/><path class="cls-1" d="M1411.51,1411.71H1289.37a5.06,5.06,0,0,0-3.73,1.51,4.78,4.78,0,0,0-1.51,3.45v121.87a4.75,4.75,0,0,0,1.51,3.45,5.06,5.06,0,0,0,3.73,1.51h122.14a5.17,5.17,0,0,0,5-5V1416.67a5.17,5.17,0,0,0-5-5Z"/><path class="cls-1" d="M1041.07,850.68h62.81a2.67,2.67,0,0,0,2.55-2.55V785.46a2.67,2.67,0,0,0-2.55-2.55h-62.81a2.67,2.67,0,0,0-2.55,2.55v62.67a2.67,2.67,0,0,0,2.55,2.55Zm31.48-55.93a22,22,0,1,1-22,22A22,22,0,0,1,1072.55,794.75Z"/><path class="cls-1" d="M893.43,785.46v62.67a2.39,2.39,0,0,0,.78,1.77,2.42,2.42,0,0,0,1.77.78h62.81a2.67,2.67,0,0,0,2.55-2.55V785.46a2.67,2.67,0,0,0-2.55-2.55H896a2.67,2.67,0,0,0-2.55,2.55Zm34,9.29a22,22,0,1,1-22,22A22,22,0,0,1,927.45,794.75Z"/><path class="cls-1" d="M496.67,1411.71H374.53a5.19,5.19,0,0,0-5,5v59H501.64v-59a5.19,5.19,0,0,0-5-5Z"/><path class="cls-1" d="M1713.21,0H286.79C128.4,0,0,128.4,0,286.79V1713.21C0,1871.6,128.4,2000,286.79,2000H1713.21c158.39,0,286.79-128.4,286.79-286.79V286.79C2000,128.4,1871.6,0,1713.21,0ZM1481.27,1460.92h153.3v33.37h-153.3ZM1085.7,423.13h131.22v65.61h65.61V751.19h65.61V882.41h-65.61v262.44h-65.61v65.61H1085.7v-65.61h65.61V882.41h65.61V751.19h-65.61V488.74H1085.7ZM968.93,768.31a19.63,19.63,0,0,1,6.94,6.94,18.51,18.51,0,0,1,2.63,9.65v63.8a18.45,18.45,0,0,1-2.63,9.64,19.58,19.58,0,0,1-6.94,6.95,18.53,18.53,0,0,1-9.57,2.55H895.55a19,19,0,0,1-19.14-19.14V784.9a19,19,0,0,1,19.14-19.14h63.81A18.53,18.53,0,0,1,968.93,768.31ZM535,1576.87H501.64v-68.11H369.56v68.11H336.48v-161.3a37,37,0,0,1,37.22-37.22H497.78a36,36,0,0,1,18.61,5,38.18,38.18,0,0,1,13.51,13.51,35.93,35.93,0,0,1,5.1,18.75Zm230.78-37.23a35.88,35.88,0,0,1-5.1,18.75,38.18,38.18,0,0,1-13.51,13.51,36,36,0,0,1-18.62,5H567.26V1378.35h153.3a35.93,35.93,0,0,1,18.61,5,38,38,0,0,1,13.51,13.51,35.93,35.93,0,0,1,5.1,18.75V1455a37.07,37.07,0,0,1-.69,7.3,29.56,29.56,0,0,1-2.07,6.48,72.28,72.28,0,0,1,7.86,13.65,34.43,34.43,0,0,1,2.9,13.65Zm-48.31-394.79V882.41H651.86V751.19h65.61V488.74h65.61V423.13H914.3v65.61H848.69V751.19H783.08V882.41h65.61v262.44H914.3v65.61H783.08v-65.61ZM993.8,1411.71h-155a10,10,0,0,0-7.17,2.62,9.24,9.24,0,0,0-2.76,7v112.49a9.23,9.23,0,0,0,2.76,7,10,10,0,0,0,7.17,2.62h155v33.37H833.05a37,37,0,0,1-37.22-37.23V1415.57a37,37,0,0,1,37.22-37.22H993.8Zm27.7-626.81a19,19,0,0,1,19.14-19.14h63.81a18.53,18.53,0,0,1,9.57,2.55,19.66,19.66,0,0,1,7,6.94,18.59,18.59,0,0,1,2.62,9.65v63.8a18.53,18.53,0,0,1-2.62,9.64,19.61,19.61,0,0,1-7,6.95,18.53,18.53,0,0,1-9.57,2.55h-63.81a19,19,0,0,1-19.14-19.14Zm198.94,754.74a35.88,35.88,0,0,1-5.1,18.75,38.18,38.18,0,0,1-13.51,13.51,36,36,0,0,1-18.61,5H1059.14a37,37,0,0,1-37.22-37.23V1415.57a37,37,0,0,1,37.22-37.22h124.08a36,36,0,0,1,18.61,5,38.18,38.18,0,0,1,13.51,13.51,35.93,35.93,0,0,1,5.1,18.75Zm229.4,0a35.88,35.88,0,0,1-5.1,18.75,38.18,38.18,0,0,1-13.51,13.51,36,36,0,0,1-18.62,5H1251.32V1378.35h161.29a36,36,0,0,1,18.62,5,38.18,38.18,0,0,1,13.51,13.51,35.93,35.93,0,0,1,5.1,18.75Zm213.68,37.22H1481.27V1543.5h182.25Zm0-165.15H1481.27v-33.36h182.25Z"/><path class="cls-1" d="M605.31,1459.13H719.18a4.65,4.65,0,0,0,3.59-1.51,5,5,0,0,0,1.37-3.45v-37.5a5.05,5.05,0,0,0-1.37-3.45,4.65,4.65,0,0,0-3.59-1.51H605.31a5.19,5.19,0,0,0-5,5v37.5a5.19,5.19,0,0,0,5,5Z"/></svg>