<svg width="249" height="273" viewBox="0 0 249 273" fill="none" xmlns="http://www.w3.org/2000/svg">
<path d="M69.4492 5.28125L73.8125 14.251H243.5V188.972H10V5H69.3125L69.4492 5.28125ZM11 187.972H242.5V15.251H73.1875L73.0508 14.9697L68.6875 6H11V187.972Z" fill="white"/>
<path d="M69.4492 5.28125L64.9524 7.46721L64.953 7.46843L69.4492 5.28125ZM73.8125 14.251L69.3163 16.4382L70.6845 19.251H73.8125V14.251ZM243.5 14.251H248.5V9.25098H243.5V14.251ZM243.5 188.972V193.972H248.5V188.972H243.5ZM10 188.972H5V193.972H10V188.972ZM10 5V0H5V5H10ZM69.3125 5L73.8093 2.81404L72.4414 0H69.3125V5ZM11 187.972H6V192.972H11V187.972ZM242.5 187.972V192.972H247.5V187.972H242.5ZM242.5 15.251H247.5V10.251H242.5V15.251ZM73.1875 15.251L68.6907 17.4369L70.0586 20.251H73.1875V15.251ZM73.0508 14.9697L77.5476 12.7838L77.547 12.7825L73.0508 14.9697ZM68.6875 6L73.1837 3.81282L71.8155 1H68.6875V6ZM11 6V1H6V6H11ZM69.4492 5.28125L64.953 7.46843L69.3163 16.4382L73.8125 14.251L78.3087 12.0638L73.9455 3.09407L69.4492 5.28125ZM73.8125 14.251V19.251H243.5V14.251V9.25098H73.8125V14.251ZM243.5 14.251H238.5V188.972H243.5H248.5V14.251H243.5ZM243.5 188.972V183.972H10V188.972V193.972H243.5V188.972ZM10 188.972H15V5H10H5V188.972H10ZM10 5V10H69.3125V5V0H10V5ZM69.3125 5L64.8157 7.18596L64.9524 7.46721L69.4492 5.28125L73.9461 3.09529L73.8093 2.81404L69.3125 5ZM11 187.972V192.972H242.5V187.972V182.972H11V187.972ZM242.5 187.972H247.5V15.251H242.5H237.5V187.972H242.5ZM242.5 15.251V10.251H73.1875V15.251V20.251H242.5V15.251ZM73.1875 15.251L77.6843 13.065L77.5476 12.7838L73.0508 14.9697L68.5539 17.1557L68.6907 17.4369L73.1875 15.251ZM73.0508 14.9697L77.547 12.7825L73.1837 3.81282L68.6875 6L64.1913 8.18718L68.5545 17.1569L73.0508 14.9697ZM68.6875 6V1H11V6V11H68.6875V6ZM11 6H6V187.972H11H16V6H11Z" fill="white"/>
<path d="M45.8112 203.653C45.1678 203.278 44.6047 202.779 44.1541 202.185C43.7036 201.592 43.3744 200.915 43.1854 200.194C42.9964 199.474 42.9514 198.723 43.0528 197.984C43.1542 197.246 43.4001 196.535 43.7764 195.892L59.0259 169.811C59.785 168.512 61.0289 167.567 62.484 167.186C63.9391 166.804 65.4861 167.016 66.7849 167.775C68.0836 168.535 69.0276 169.779 69.4092 171.235C69.7907 172.69 69.5787 174.238 68.8196 175.537L53.5813 201.618C53.2047 202.262 52.705 202.825 52.1107 203.276C51.5164 203.727 50.8392 204.056 50.1177 204.245C49.3961 204.434 48.6445 204.479 47.9055 204.378C47.1666 204.276 46.455 204.03 45.8112 203.653Z" fill="white" stroke="#6C7478" stroke-width="2" stroke-linecap="round" stroke-linejoin="round"/>
<path d="M110.989 88.3982C102.708 83.728 93.1773 81.5305 83.6016 82.0837C74.0259 82.6369 64.8354 85.9158 57.1922 91.5059C49.5491 97.096 43.7965 104.746 40.6621 113.489C37.5277 122.232 37.1522 131.674 39.5831 140.623C42.0139 149.571 49.384 160.027 56.5608 166.165C63.7376 172.303 70.3986 173.848 79.9023 175.107C89.4059 176.366 99.0832 174.878 107.71 170.834C116.337 166.789 123.527 160.368 128.37 152.382C134.861 141.674 136.676 128.919 133.416 116.92C130.157 104.922 122.09 94.6625 110.989 88.3982ZM66.2734 162.12C59.4325 158.262 53.9317 152.534 50.4667 145.661C47.0017 138.788 45.7615 131.079 46.8403 123.508C47.9191 115.937 51.3018 108.844 56.5608 103.127C61.8198 97.4102 68.7187 93.3254 76.3852 91.3894C84.0517 89.4535 92.1413 89.7533 99.6311 92.2509C107.121 94.7486 113.674 99.3319 118.463 105.421C123.251 111.511 126.059 118.833 126.533 126.461C127.006 134.09 125.122 141.682 121.12 148.278C118.464 152.663 114.938 156.5 110.743 159.569C106.548 162.638 101.767 164.879 96.6729 166.165C91.5788 167.451 86.2718 167.755 81.0555 167.061C75.8393 166.367 70.8161 164.688 66.2734 162.12Z" fill="white" stroke="white" stroke-linecap="round" stroke-linejoin="round"/>
<path d="M5.6231 270.801C4.33587 270.049 3.20946 269.05 2.30822 267.862C1.40699 266.674 0.748592 265.32 0.370667 263.877C-0.00725761 262.435 -0.0973105 260.932 0.105659 259.454C0.308629 257.977 0.80064 256.554 1.55358 255.267L35.0936 197.904C35.8232 196.572 36.8126 195.399 38.0032 194.456C39.1938 193.512 40.5615 192.817 42.0252 192.412C43.489 192.007 45.0192 191.899 46.5253 192.095C48.0314 192.292 49.4828 192.789 50.7937 193.556C52.1045 194.324 53.2482 195.346 54.157 196.564C55.0658 197.781 55.7214 199.168 56.0848 200.644C56.4483 202.119 56.5123 203.652 56.2731 205.152C56.0339 206.653 55.4963 208.09 54.6921 209.379L21.1633 266.775C19.6348 269.369 17.1397 271.25 14.226 272.005C11.3122 272.759 8.21807 272.327 5.6231 270.801Z" fill="white"/>
<path d="M102.87 124.829C102.019 126.283 100.755 127.452 99.24 128.188C97.7246 128.924 96.0251 129.195 94.3563 128.965C92.6874 128.734 91.1243 128.015 89.8643 126.896C88.6044 125.777 87.7042 124.31 87.2776 122.68C86.8511 121.05 86.9173 119.33 87.4678 117.737C88.0183 116.144 89.0285 114.751 90.3707 113.732C91.7129 112.714 93.3267 112.116 95.0083 112.015C96.6898 111.914 98.3636 112.314 99.818 113.165C100.784 113.73 101.63 114.48 102.307 115.372C102.983 116.264 103.477 117.281 103.761 118.364C104.044 119.448 104.111 120.576 103.959 121.685C103.806 122.795 103.436 123.863 102.87 124.829Z" fill="white" stroke="white" stroke-linecap="round" stroke-linejoin="round"/>
</svg>
