<svg width="249" height="273" viewBox="0 0 249 273" fill="none" xmlns="http://www.w3.org/2000/svg">
<path d="M69.4492 5.28125L73.8125 14.251H243.5V188.972H10V5H69.3125L69.4492 5.28125ZM11 187.972H242.5V15.251H73.1875L73.0508 14.9697L68.6875 6H11V187.972Z" fill="#5EDC5D"/>
<path d="M69.4492 5.28125L64.9524 7.46721L64.953 7.46843L69.4492 5.28125ZM73.8125 14.251L69.3163 16.4382L70.6845 19.251H73.8125V14.251ZM243.5 14.251H248.5V9.25098H243.5V14.251ZM243.5 188.972V193.972H248.5V188.972H243.5ZM10 188.972H5V193.972H10V188.972ZM10 5V0H5V5H10ZM69.3125 5L73.8093 2.81404L72.4414 0H69.3125V5ZM11 187.972H6V192.972H11V187.972ZM242.5 187.972V192.972H247.5V187.972H242.5ZM242.5 15.251H247.5V10.251H242.5V15.251ZM73.1875 15.251L68.6907 17.4369L70.0586 20.251H73.1875V15.251ZM73.0508 14.9697L77.5476 12.7838L77.547 12.7825L73.0508 14.9697ZM68.6875 6L73.1837 3.81282L71.8155 1H68.6875V6ZM11 6V1H6V6H11ZM69.4492 5.28125L64.953 7.46843L69.3163 16.4382L73.8125 14.251L78.3087 12.0638L73.9455 3.09407L69.4492 5.28125ZM73.8125 14.251V19.251H243.5V14.251V9.25098H73.8125V14.251ZM243.5 14.251H238.5V188.972H243.5H248.5V14.251H243.5ZM243.5 188.972V183.972H10V188.972V193.972H243.5V188.972ZM10 188.972H15V5H10H5V188.972H10ZM10 5V10H69.3125V5V0H10V5ZM69.3125 5L64.8157 7.18596L64.9524 7.46721L69.4492 5.28125L73.9461 3.09529L73.8093 2.81404L69.3125 5ZM11 187.972V192.972H242.5V187.972V182.972H11V187.972ZM242.5 187.972H247.5V15.251H242.5H237.5V187.972H242.5ZM242.5 15.251V10.251H73.1875V15.251V20.251H242.5V15.251ZM73.1875 15.251L77.6843 13.065L77.5476 12.7838L73.0508 14.9697L68.5539 17.1557L68.6907 17.4369L73.1875 15.251ZM73.0508 14.9697L77.547 12.7825L73.1837 3.81282L68.6875 6L64.1913 8.18718L68.5545 17.1569L73.0508 14.9697ZM68.6875 6V1H11V6V11H68.6875V6ZM11 6H6V187.972H11H16V6H11Z" fill="#5EDC5D"/>
<path d="M45.8112 203.653C45.1678 203.278 44.6047 202.779 44.1541 202.185C43.7036 201.592 43.3744 200.915 43.1854 200.194C42.9964 199.474 42.9514 198.723 43.0528 197.984C43.1542 197.246 43.4001 196.535 43.7764 195.892L59.0259 169.811C59.785 168.512 61.0289 167.567 62.484 167.186C63.9391 166.804 65.4861 167.016 66.7849 167.775C68.0836 168.535 69.0276 169.779 69.4092 171.235C69.7907 172.69 69.5787 174.238 68.8196 175.537L53.5813 201.618C53.2047 202.262 52.705 202.825 52.1107 203.276C51.5164 203.727 50.8392 204.056 50.1177 204.245C49.3961 204.434 48.6445 204.479 47.9055 204.378C47.1666 204.276 46.455 204.03 45.8112 203.653Z" fill="#5EDC5D" stroke="white" stroke-width="2" stroke-linecap="round" stroke-linejoin="round"/>
<path d="M110.989 88.3982C102.708 83.728 93.1773 81.5305 83.6016 82.0837C74.0259 82.6369 64.8354 85.9158 57.1922 91.5059C49.5491 97.096 43.7965 104.746 40.6621 113.489C37.5277 122.232 37.1522 131.674 39.5831 140.623C42.0139 149.571 49.384 160.027 56.5608 166.165C63.7376 172.303 70.3986 173.848 79.9023 175.107C89.4059 176.366 99.0832 174.878 107.71 170.834C116.337 166.789 123.527 160.368 128.37 152.382C134.861 141.674 136.676 128.919 133.416 116.92C130.157 104.922 122.09 94.6625 110.989 88.3982ZM66.2734 162.12C59.4325 158.262 53.9317 152.534 50.4667 145.661C47.0017 138.788 45.7615 131.079 46.8403 123.508C47.9191 115.937 51.3018 108.844 56.5608 103.127C61.8198 97.4102 68.7187 93.3254 76.3852 91.3894C84.0517 89.4535 92.1413 89.7533 99.6311 92.2509C107.121 94.7486 113.674 99.3319 118.463 105.421C123.251 111.511 126.059 118.833 126.533 126.461C127.006 134.09 125.122 141.682 121.12 148.278C118.464 152.663 114.938 156.5 110.743 159.569C106.548 162.638 101.767 164.879 96.6729 166.165C91.5788 167.451 86.2718 167.755 81.0555 167.061C75.8393 166.367 70.8161 164.688 66.2734 162.12Z" fill="#5EDC5D" stroke="#5EDC5D" stroke-width="2" stroke-linecap="round" stroke-linejoin="round"/>
<path d="M42.292 193.376C43.6267 193.006 45.0222 192.908 46.3955 193.087C47.7688 193.266 49.0927 193.719 50.2881 194.419C51.4835 195.119 52.5266 196.052 53.3555 197.162C54.1843 198.272 54.7828 199.537 55.1143 200.883C55.4457 202.228 55.5033 203.627 55.2852 204.995C55.067 206.363 54.5771 207.674 53.8438 208.85L53.8359 208.862L53.8291 208.875L20.3018 266.268C18.9078 268.633 16.6324 270.348 13.9756 271.036C11.3185 271.725 8.49633 271.331 6.12988 269.939L6.12793 269.938L5.69434 269.67C4.70023 269.021 3.82356 268.206 3.10449 267.258C2.2827 266.175 1.68252 264.94 1.33789 263.624C0.99328 262.309 0.911652 260.938 1.09668 259.591C1.25863 258.412 1.62255 257.271 2.1709 256.218L2.41699 255.771L35.957 198.409L35.9639 198.396L35.9707 198.385C36.6361 197.169 37.5382 196.1 38.624 195.239C39.7098 194.379 40.9572 193.746 42.292 193.376Z" fill="#5EDC5D" stroke="#5EDC5D" stroke-width="2"/>
<path d="M102.87 124.829C102.019 126.283 100.755 127.452 99.24 128.188C97.7246 128.924 96.0251 129.195 94.3563 128.965C92.6874 128.734 91.1243 128.015 89.8643 126.896C88.6044 125.777 87.7042 124.31 87.2776 122.68C86.8511 121.05 86.9173 119.33 87.4678 117.737C88.0183 116.144 89.0285 114.751 90.3707 113.732C91.7129 112.714 93.3267 112.116 95.0083 112.015C96.6898 111.914 98.3636 112.314 99.818 113.165C100.784 113.73 101.63 114.48 102.307 115.372C102.983 116.264 103.477 117.281 103.761 118.364C104.044 119.448 104.111 120.576 103.959 121.685C103.806 122.795 103.436 123.863 102.87 124.829Z" fill="white" stroke="#5EDC5D" stroke-opacity="0.98" stroke-linecap="round" stroke-linejoin="round"/>
</svg>
